Coordinates
version=1
nRows=12
nColumns=42
inDegrees=yes

Units are S.I. units (second, meters, Newtons, ...)
If the header above contains a line with 'inDegrees', this indicates whether rotational values are in degrees (yes) or radians (no).

endheader
time	pelvis_tilt	pelvis_list	pelvis_rotation	pelvis_tx	pelvis_ty	pelvis_tz	hip_flexion_r	hip_adduction_r	hip_rotation_r	knee_angle_r	knee_adduction_r	knee_angle_r_beta	ankle_angle_r	subtalar_angle_r	mtp_angle_r	hip_flexion_l	hip_adduction_l	hip_rotation_l	knee_angle_l	knee_adduction_l	knee_angle_l_beta	ankle_angle_l	subtalar_angle_l	mtp_angle_l	lumbar_extension	lumbar_bending	lumbar_rotation	arm_flex_r	arm_add_r	arm_rot_r	elbow_flex_r	pro_sup_r	wrist_flex_r	wrist_dev_r	arm_flex_l	arm_add_l	arm_rot_l	elbow_flex_l	pro_sup_l	wrist_flex_l	wrist_dev_l
      1.94000000	     -7.77564846	     -1.48610048	     -2.95333678	      0.42418705	      0.91334569	     -0.07570450	    -10.72903865	      9.75799447	     -3.95683266	      2.23984328	     -5.95973238	      0.03909264	     22.78106790	      9.92936292	     -7.50320015	     33.83640024	     -1.96000651	     -3.28435898	      5.89107137	     -0.73968835	      0.10281859	      3.46039427	      3.34207073	     -7.50320015	     -3.31101624	     -0.98675781	      2.08930120	     10.14370092	    -14.08141032	     -1.89172829	     38.76310940	     90.00000001	      0.00000000	      0.00000000	    -14.60272266	     -9.08920487	    -27.32897328	     13.10800859	     90.00000001	      0.00000000	      0.00000000
      1.95000000	     -7.70517144	     -1.13660070	     -3.21961406	      0.43602139	      0.91199199	     -0.07594285	    -11.45650340	      9.11023617	     -3.49076882	      2.60894352	     -5.72821385	      0.04553465	     23.06369925	      9.65119388	     -7.50315401	     34.11178106	     -1.60902949	     -4.03778646	      7.18378489	     -0.87263236	      0.12538070	      2.44831467	      2.26325270	     -7.50315401	     -3.41042365	     -1.57837183	      2.33290928	      9.92985548	    -14.00767481	     -2.07294023	     38.90438437	     90.00000001	      0.00000000	      0.00000000	    -14.26728098	     -9.32691643	    -27.11339306	     12.59957251	     90.00000001	      0.00000000	      0.00000000
      1.96000000	     -7.64512667	     -0.87739114	     -3.42119106	      0.44809164	      0.91086581	     -0.07611843	    -12.08925176	      8.57550620	     -3.13700482	      3.17559352	     -5.51753836	      0.05542456	     22.87611415	      9.30360012	     -7.50310872	     34.21584267	     -1.33139519	     -3.83237958	      8.44597141	     -0.93734683	      0.14741001	      1.71484109	      1.18416702	     -7.50310872	     -3.47445018	     -2.08949719	      2.46131823	      9.69694022	    -13.86539457	     -2.28333472	     38.87279158	     90.00000001	      0.00000000	      0.00000000	    -14.04981883	     -9.54268131	    -27.02872227	     12.43666594	     90.00000001	      0.00000000	      0.00000000
      1.97000000	     -7.86581928	     -0.69222213	     -3.46727649	      0.45980284	      0.90985463	     -0.07631141	    -12.53205281	      8.24645096	     -1.82908713	      3.55520923	     -5.39869308	      0.06205011	     21.98217119	      7.11559419	     -7.50288684	     34.24634853	     -0.99796646	     -1.14875075	      9.21451076	     -0.82674080	      0.16082355	     -0.96906184	     -4.18456534	     -7.50288684	     -3.26688482	     -2.53744457	      2.47340902	      9.41245400	    -13.57979019	     -2.74851662	     38.63796312	     90.00000001	      0.00000000	      0.00000000	    -13.62618881	     -9.78253049	    -27.30075047	     12.12858698	     90.00000001	      0.00000000	      0.00000000
      1.98000000	     -7.85332153	     -0.35045917	     -3.49056386	      0.47206414	      0.90936962	     -0.07682597	    -12.97598236	      7.59210586	     -1.44709569	      4.36113788	     -5.08277246	      0.07611622	     21.40931704	      6.41340017	     -7.50272098	     34.36880415	     -0.57862546	      0.07623414	     10.85387486	     -0.64443628	      0.18943585	     -2.45684435	     -6.76306480	     -7.50272098	     -3.28167702	     -3.15165120	      2.42018070	      9.07324080	    -13.31584002	     -3.08621463	     38.41258882	     90.00000001	      0.00000000	      0.00000000	    -13.26468851	    -10.01479568	    -27.25300271	     12.01987715	     90.00000001	      0.00000000	      0.00000000
      1.99000000	     -7.58696773	      0.05035411	     -3.43626144	      0.48495085	      0.90947105	     -0.07739261	    -13.60505511	      6.81779140	     -1.61380494	      5.32809563	     -4.67806434	      0.09299281	     20.78637222	      5.99670257	     -7.50267752	     34.32897873	     -0.12633651	      0.72627266	     12.87369658	     -0.38093481	      0.22468839	     -3.04491126	     -7.76638049	     -7.50267752	     -3.52113449	     -3.85792605	      2.26620961	      8.66835211	    -13.03805921	     -3.25330635	     38.13106276	     90.00000001	      0.00000000	      0.00000000	    -12.89158649	    -10.28904335	    -27.05282370	     11.89446457	     90.00000001	      0.00000000	      0.00000000
      2.00000000	     -7.37527845	      0.46545209	     -3.35338871	      0.49784598	      0.90988266	     -0.07811927	    -14.04329096	      6.02504839	     -1.71607382	      6.52541020	     -4.27005041	      0.11388989	     19.83629744	      5.37934619	     -7.50262849	     34.30837163	      0.31818921	      1.63332727	     14.89102472	      0.06794522	      0.25989741	     -3.77823401	     -9.48487055	     -7.50262849	     -3.71886152	     -4.55640870	      2.12039419	      8.20097497	    -12.70437211	     -3.62677950	     37.73745134	     90.00000001	      0.00000000	      0.00000000	    -12.43387410	    -10.55020026	    -26.83535960	     11.84094679	     90.00000001	      0.00000000	      0.00000000
      2.01000000	     -7.55948939	      0.74671973	     -3.09128529	      0.51039867	      0.91036732	     -0.07887609	    -13.93012957	      5.52424354	     -1.29946401	      7.93609758	     -3.91948085	      0.13851103	     18.45341127	      3.63856210	     -7.50249026	     34.30373628	      0.72114331	      4.49339320	     16.06899415	      0.86842245	      0.28045686	     -6.19861209	    -14.26000396	     -7.50249026	     -3.49634821	     -5.10352071	      1.84192154	      7.68676716	    -12.22280376	     -4.36035603	     37.13609347	     90.00000001	      0.00000000	      0.00000000	    -11.93811164	    -10.82603680	    -26.57657112	     11.82514432	     90.00000001	      0.00000000	      0.00000000
      2.02000000	     -7.13698969	      1.07939164	     -2.91557555	      0.52382229	      0.91172607	     -0.07983204	    -14.40364469	      4.76120244	     -1.52187928	      9.47350495	     -3.35519278	      0.16534385	     16.99312282	      3.14047830	     -7.50245118	     33.79518200	      1.10694355	      5.24992700	     17.66617408	      1.47835842	      0.30833290	     -6.01191296	    -14.96501195	     -7.50245118	     -3.89974011	     -5.67968493	      1.59630417	      7.13078277	    -11.94046888	     -4.49586277	     36.62084534	     90.00000001	      0.00000000	      0.00000000	    -11.39308894	    -11.05147921	    -26.35466788	     11.87626222	     90.00000001	      0.00000000	      0.00000000
      2.03000000	     -6.99935250	      1.34468009	     -2.63300512	      0.53705694	      0.91315131	     -0.08074439	    -14.30109635	      4.19062250	     -1.62555520	     11.47666043	     -2.90385937	      0.20030551	     15.12283226	      1.64460856	     -7.50235186	     33.38967778	      1.50339845	      6.51842028	     18.81287289	      2.09112638	      0.32834657	     -6.45326444	    -16.47707371	     -7.50235186	     -3.97830175	     -6.16652218	      1.27941051	      6.54758202	    -11.48046020	     -5.06999073	     35.89259966	     90.00000001	      0.00000000	      0.00000000	    -10.83530805	    -11.29321542	    -25.97299882	     11.95503926	     90.00000001	      0.00000000	      0.00000000
      2.04000000	     -6.57690426	      1.52034865	     -2.33964976	      0.55041394	      0.91519182	     -0.08191151	    -14.40967140	      3.63608853	     -1.90802724	     13.56639575	     -2.36372322	      0.23677827	     13.02653805	      0.84801437	     -7.50232519	     32.57016963	      1.84146308	      7.14657063	     19.79568450	      2.57826804	      0.34549987	     -5.95055063	    -16.91778223	     -7.50232519	     -4.39063934	     -6.50651067	      0.98671400	      5.95768741	    -11.19365875	     -5.29077260	     35.15064389	     90.00000001	      0.00000000	      0.00000000	    -10.12963616	    -11.45768340	    -25.76520045	     12.08138677	     90.00000001	      0.00000000	      0.00000000
      2.05000000	     -6.18866894	      1.63463890	     -1.99502778	      0.56353097	      0.91746506	     -0.08324606	    -14.30100052	      3.17396818	     -1.96606086	     15.89692396	     -1.83234843	      0.27745366	     10.89280506	      0.13504535	     -7.50230860	     31.66543519	      2.19120440	      7.70771847	     20.53889914	      2.94664449	      0.35847141	     -5.36537483	    -17.09137967	     -7.50230860	     -4.80415647	     -6.72569027	      0.58857053	      5.40205422	    -10.88672456	     -5.51274213	     34.36403586	     90.00000001	      0.00000000	      0.00000000	     -9.39437870	    -11.56083260	    -25.55309660	     12.23510563	     90.00000001	      0.00000000	      0.00000000
